<svg width="404" height="283" viewBox="0 0 404 283" fill="none" xmlns="http://www.w3.org/2000/svg">
<path d="M0.697136 197.17C16.0062 217.607 35.9455 235.304 59.3764 249.252C82.8074 263.199 109.271 273.124 137.257 278.459C165.243 283.794 194.202 284.435 222.482 280.345C250.762 276.256 277.808 267.515 302.077 254.623C326.345 241.732 347.361 224.941 363.924 205.209C380.487 185.478 392.272 163.193 398.608 139.626C404.943 116.059 405.704 91.6719 400.848 67.8573C395.991 44.0427 385.612 21.2668 370.303 0.830009L185.5 99L0.697136 197.17Z" fill="url(#paint0_linear_312_247)"/>
<defs>
<linearGradient id="paint0_linear_312_247" x1="-13.9035" y1="241.97" x2="347.62" y2="365.262" gradientUnits="userSpaceOnUse">
<stop offset="0.308831" stop-color="#AF2676"/>
<stop offset="1" stop-color="#D98D1C"/>
</linearGradient>
</defs>
</svg>
